<svg width="48" height="18" viewBox="0 0 48 18" fill="none" xmlns="http://www.w3.org/2000/svg">
<path d="M40.0253 0.00954926C39.9862 0.0136653 39.838 0.0280715 39.696 0.0383617C37.4754 0.229755 35.4133 1.15173 33.9542 2.61085C33.3203 3.24677 32.8429 3.90532 32.4292 4.72029C31.9415 5.68548 31.6472 6.70213 31.5134 7.88959C31.4435 8.52345 31.4537 9.59978 31.5381 10.2666C32.0629 14.4299 35.0717 17.3502 39.3976 17.9017C39.9594 17.9737 40.3607 17.9902 41.1777 17.9779C42.3714 17.9593 43.2954 17.8544 44.3697 17.6136C45.0694 17.4572 45.907 17.2041 46.1889 17.0621C46.8599 16.7266 47.3352 16.0557 47.434 15.3045C47.4505 15.1872 47.4546 14.2447 47.4505 12.2731L47.4443 9.4125L47.3888 9.217C47.1315 8.30736 46.51 7.71466 45.5818 7.49652C45.4398 7.46359 45.2279 7.45947 42.9126 7.4533L40.3957 7.44507V7.99661C40.3957 8.30119 40.406 8.62841 40.4183 8.72308C40.5398 9.70885 41.1901 10.4559 42.1615 10.7234C42.3055 10.7646 42.3837 10.7687 42.9949 10.777L43.6679 10.7831L43.6638 12.3493L43.6576 13.9154L43.4415 13.9956C42.8427 14.222 42.1656 14.3352 41.3177 14.3558C40.5357 14.3743 39.9923 14.3146 39.3873 14.1479C37.78 13.7055 36.6255 12.5612 36.1274 10.921C35.8084 9.86732 35.7735 8.55638 36.0348 7.4924C36.1624 6.97584 36.4073 6.38726 36.681 5.94479C37.4199 4.75321 38.6135 3.94648 39.9841 3.71393C40.334 3.65425 40.6591 3.63367 41.0748 3.64602C41.8425 3.66865 42.5237 3.81889 43.1616 4.10701C43.5136 4.26547 43.6309 4.31075 43.8017 4.35602C44.559 4.55771 45.3822 4.35808 45.9296 3.83741C46.0017 3.76744 46.3474 3.38465 46.6993 2.98334L47.3394 2.25687L47.2365 2.16632C46.8907 1.85557 46.4462 1.53658 46.0469 1.30608C44.8204 0.598134 43.2193 0.137145 41.5791 0.0177814C41.3197 -0.000740891 40.2023 -0.00691498 40.0253 0.00954926Z" fill="#212121"/>
<path d="M1.92365 0.48289C0.917291 0.668109 0.162008 1.45014 0.0179485 2.45856C0.00148455 2.57587 -0.00263143 4.39307 0.00148455 9.1141L0.00765853 15.6071L0.0652823 15.8129C0.141428 16.0927 0.332821 16.4714 0.503635 16.6834C0.857609 17.1258 1.33712 17.4099 1.91336 17.521C2.05948 17.5477 2.42168 17.5519 4.70811 17.5519C6.28659 17.5519 7.44936 17.5436 7.62223 17.5313C9.56291 17.3893 11.057 16.8295 12.0346 15.8767C12.4153 15.5042 12.6396 15.2016 12.8619 14.755C13.15 14.1788 13.3023 13.5244 13.327 12.767C13.3434 12.1846 13.2838 11.7298 13.1253 11.2462C12.689 9.91671 11.553 8.95357 10.0465 8.63664C9.92512 8.61195 9.83457 8.58314 9.83457 8.56873C9.83457 8.55638 9.91483 8.51522 10.0157 8.47818C11.6929 7.84638 12.6334 6.53955 12.6334 4.8376C12.6334 3.98147 12.4153 3.18709 12.0078 2.5594C11.3472 1.54481 10.1247 0.859502 8.48658 0.583732C7.74777 0.460252 7.82391 0.46231 4.83365 0.458194C2.50606 0.454078 2.06153 0.458194 1.92365 0.48289ZM6.95132 3.79214C7.77452 3.93002 8.26021 4.21403 8.49482 4.69354C8.59977 4.90757 8.64093 5.11542 8.64093 5.41383C8.63888 6.24938 8.21493 6.81944 7.38762 7.09727C7.28678 7.13225 7.0995 7.17959 6.96985 7.20223C6.74964 7.24544 6.66115 7.2475 5.36461 7.25573L3.98987 7.26397V3.74069L5.36461 3.74892C6.54796 3.75509 6.7661 3.76127 6.95132 3.79214ZM7.19005 10.3551C8.33224 10.5176 8.92494 10.9128 9.13897 11.6578C9.18013 11.7998 9.1863 11.8677 9.1863 12.1805C9.1863 12.6024 9.15955 12.7423 9.02372 13.0346C8.71091 13.6993 7.99678 14.0841 6.87312 14.1973C6.7517 14.2097 6.08903 14.2179 5.32551 14.2179H3.98987V10.3057L5.4778 10.3139C6.68173 10.3201 7.00689 10.3283 7.19005 10.3551Z" fill="#212121"/>
<path d="M21.74 0.48289C21.2399 0.573442 20.7543 0.836866 20.4332 1.18672C20.2809 1.35136 20.1039 1.61067 20.0319 1.77531C20.0031 1.83911 19.0893 4.19962 18.0027 7.02112C16.914 9.84263 15.5619 13.3494 14.996 14.8147C14.43 16.28 13.9629 17.4963 13.9567 17.5148C13.9464 17.5498 14.0287 17.5519 15.5002 17.5519C16.8173 17.5519 17.0787 17.5477 17.2207 17.521C17.9719 17.3769 18.5707 16.9283 18.8938 16.2656C18.9659 16.1174 19.1717 15.5083 19.6409 14.0636C22.7073 4.60504 22.4336 5.4303 22.4933 5.4303C22.5488 5.4303 22.4315 5.07838 25.3539 14.0327C25.7161 15.1481 26.0495 16.136 26.0927 16.2286C26.245 16.5558 26.5043 16.8727 26.8027 17.097C26.9961 17.2432 27.3542 17.416 27.6053 17.4839L27.8111 17.5416L29.474 17.5477C30.3877 17.5498 31.1348 17.5477 31.1348 17.5416C31.1348 17.5354 30.6429 16.2327 30.042 14.6439C29.441 13.0572 28.1116 9.54422 27.0887 6.84002C26.0639 4.13376 25.1872 1.83705 25.1378 1.73621C24.8538 1.1435 24.3043 0.701038 23.6231 0.515819C23.4317 0.464368 23.4111 0.46231 22.6661 0.458194C22.0652 0.454078 21.8697 0.458194 21.74 0.48289Z" fill="#212121"/>
</svg>
